<svg xmlns="http://www.w3.org/2000/svg" viewBox="0 0 750 500"><g id="freepik--Floor--inject-36"><polygon points="50.72 441.6 131.79 441.36 212.86 441.27 375 441.11 537.14 441.27 618.21 441.36 699.28 441.6 618.21 441.85 537.14 441.94 375 442.1 212.86 441.94 131.79 441.85 50.72 441.6" style="fill:#263238"></polygon></g><g id="freepik--Device--inject-36"><rect x="68.63" y="419.29" width="612.74" height="22.32" style="fill:#c7c7c7"></rect><rect x="122.94" y="82.07" width="504.11" height="337.22" style="fill:#dbdbdb"></rect><rect x="126.61" y="86.18" width="496.79" height="328.99" style="fill:#263238"></rect><rect x="148.6" y="107.33" width="452.79" height="286.69" style="fill:#fff"></rect><rect x="148.6" y="107.33" width="452.79" height="7.45" style="fill:#455a64"></rect><path d="M155.64,111.05a1.42,1.42,0,1,1-1.41-1.41A1.41,1.41,0,0,1,155.64,111.05Z" style="fill:#c7c7c7"></path><path d="M161.42,111.05a1.42,1.42,0,1,1-1.42-1.41A1.42,1.42,0,0,1,161.42,111.05Z" style="fill:#fff"></path><path d="M167.19,111.05a1.42,1.42,0,1,1-1.42-1.41A1.41,1.41,0,0,1,167.19,111.05Z" style="fill:#1E8199"></path><rect x="148.6" y="114.78" width="452.79" height="41.85" style="fill:#1E8199"></rect><rect x="498.26" y="125.09" width="82.97" height="11.07" style="fill:#fff"></rect><path d="M581.34,136.28H498.15V125h83.19Zm-83-.23h82.75V125.2H498.37Z" style="fill:#c7c7c7"></path><rect x="570.04" y="124.97" width="11.31" height="11.31" style="fill:#455a64"></rect><path d="M579.2,133.73l-1,.78L576.29,132l-.7-.91a1.6,1.6,0,0,0,.4-.23,1.66,1.66,0,0,0,.53-.68l.73,1Z" style="fill:#fff"></path><path d="M577.19,127.84a2.79,2.79,0,1,0-.9,4.16,2.26,2.26,0,0,0,.38-.25,2.53,2.53,0,0,0,.58-.6A2.79,2.79,0,0,0,577.19,127.84Zm-1.2,3a1.6,1.6,0,0,1-.4.23,1.67,1.67,0,1,1,.93-.91A1.66,1.66,0,0,1,576,130.86Z" style="fill:#fff"></path><rect x="500.58" y="127.27" width="0.59" height="6.72" style="fill:#c7c7c7"></rect><rect x="203.59" y="125.09" width="271.49" height="11.07" style="fill:#fff"></rect><path d="M475.19,136.28H203.48V125H475.19Zm-271.49-.23H475V125.2H203.7Z" style="fill:#c7c7c7"></path><rect x="205.9" y="127.27" width="0.59" height="6.72" style="fill:#c7c7c7"></rect><polygon points="172.69 134.42 168.65 130.7 172.68 126.84 173.31 127.49 169.97 130.69 173.3 133.75 172.69 134.42" style="fill:#fff"></polygon><polygon points="182.42 126.84 186.45 130.55 182.43 134.41 181.8 133.76 185.14 130.56 181.81 127.5 182.42 126.84" style="fill:#fff"></polygon><rect x="148.6" y="107.33" width="452.79" height="286.69" style="fill:#fff;opacity:0.7000000000000001"></rect><rect x="204.94" y="140.72" width="340.11" height="230.94" style="fill:#fff"></rect><path d="M545.56,372.16H204.44V140.22H545.56Zm-340.12-1H544.56V141.22H205.44Z" style="fill:#ebebeb"></path><rect x="204.94" y="140.72" width="340.11" height="7.45" style="fill:#455a64"></rect><path d="M212,144.44a1.42,1.42,0,1,1-1.41-1.41A1.42,1.42,0,0,1,212,144.44Z" style="fill:#c7c7c7"></path><path d="M217.75,144.44a1.41,1.41,0,1,1-1.41-1.41A1.42,1.42,0,0,1,217.75,144.44Z" style="fill:#fff"></path><circle cx="222.11" cy="144.44" r="1.41" style="fill:#1E8199"></circle><path d="M297,229.61h-3.14l-.63,1.68a.74.74,0,0,1-.67.45.69.69,0,0,1-.25,0,.73.73,0,0,1-.42-.93l2.85-7.6a.75.75,0,0,1,1.37,0l2.85,7.6a.73.73,0,0,1-.42.93.66.66,0,0,1-.25,0,.71.71,0,0,1-.66-.45Zm-.53-1.42-1.05-2.78-1,2.78Z" style="fill:#263238"></path><path d="M303,231.74a2.7,2.7,0,0,1-2.69-2.68V226a.7.7,0,0,1,.69-.68.69.69,0,0,1,.68.68v3.09a1.3,1.3,0,0,0,1.32,1.31,1.33,1.33,0,0,0,1.35-1.31V226a.68.68,0,0,1,.67-.68.71.71,0,0,1,.7.68v3.09A2.72,2.72,0,0,1,303,231.74Z" style="fill:#263238"></path><path d="M311.28,226a.73.73,0,0,1-.72.71h-.32v3.6a.71.71,0,0,1,.71.72.7.7,0,0,1-.71.71,1.44,1.44,0,0,1-1.44-1.43v-3.6h-.37a.71.71,0,0,1-.71-.71.7.7,0,0,1,.71-.71h.37v-1.88a.72.72,0,0,1,.73-.71.7.7,0,0,1,.71.71v1.88h.32A.71.71,0,0,1,311.28,226Z" style="fill:#263238"></path><path d="M314.72,231a.72.72,0,0,1-.73.71.73.73,0,0,1-.68-.53,1,1,0,0,1,0-.18v-7.62a.72.72,0,0,1,1.44,0v2.25a2.9,2.9,0,0,1,1.38-.37,2.81,2.81,0,0,1,2.81,2.82V231a.71.71,0,0,1-1.42,0v-2.92a1.39,1.39,0,1,0-2.77,0Z" style="fill:#263238"></path><path d="M320.75,228.51a3.19,3.19,0,0,1,3.15-3.22,3.09,3.09,0,0,1,3.11,3v.07a.41.41,0,0,1,0,.11.63.63,0,0,1-.68.52h-4.1a1.7,1.7,0,0,0,.44.85,2,2,0,0,0,1.24.58,2.13,2.13,0,0,0,1.34-.32.72.72,0,0,1,1,0,.6.6,0,0,1,0,.84,3.27,3.27,0,0,1-2.31.85A3.2,3.2,0,0,1,320.75,228.51Zm1.4-.63h3.66a2.11,2.11,0,0,0-1.91-1.37A1.82,1.82,0,0,0,322.15,227.88Z" style="fill:#263238"></path><path d="M334.45,228v3.09a.68.68,0,0,1-.68.68.69.69,0,0,1-.68-.68V228a1.33,1.33,0,0,0-1.34-1.3,1.28,1.28,0,0,0-1.29,1.3v3.09a.26.26,0,0,1,0,.13.7.7,0,0,1-.68.55.68.68,0,0,1-.69-.68V226a.68.68,0,0,1,.69-.68.69.69,0,0,1,.63.4,2.53,2.53,0,0,1,1.37-.4A2.7,2.7,0,0,1,334.45,228Z" style="fill:#263238"></path><path d="M339.88,226a.73.73,0,0,1-.72.71h-.32v3.6a.71.71,0,0,1,.71.72.7.7,0,0,1-.71.71,1.44,1.44,0,0,1-1.44-1.43v-3.6H337a.71.71,0,0,1-.71-.71.7.7,0,0,1,.71-.71h.37v-1.88a.72.72,0,0,1,.73-.71.7.7,0,0,1,.71.71v1.88h.32A.71.71,0,0,1,339.88,226Z" style="fill:#263238"></path><path d="M343.55,223.67a.7.7,0,1,1-1.39,0v-.27a.7.7,0,1,1,1.39,0Zm0,2.34v5a.7.7,0,1,1-1.39,0v-5a.7.7,0,1,1,1.39,0Z" style="fill:#263238"></path><path d="M345.32,228.53a3.28,3.28,0,0,1,3.28-3.24,3.37,3.37,0,0,1,2,.71.68.68,0,1,1-.83,1.08,2.05,2.05,0,0,0-1.22-.41,1.85,1.85,0,1,0,0,3.7,2.1,2.1,0,0,0,1.22-.41.7.7,0,0,1,1,.14.71.71,0,0,1-.14,1,3.55,3.55,0,0,1-2,.68A3.27,3.27,0,0,1,345.32,228.53Z" style="fill:#263238"></path><path d="M358.6,228.53v2.53a.69.69,0,0,1-.68.68.7.7,0,0,1-.67-.55,3,3,0,0,1-3.91-.39,3.38,3.38,0,0,1,0-4.55,3,3,0,0,1,2.19-1,3,3,0,0,1,1.72.56.7.7,0,0,1,.67-.56.69.69,0,0,1,.68.69Zm-1.36,0a1.88,1.88,0,0,0-.51-1.33,1.59,1.59,0,0,0-1.2-.53,1.56,1.56,0,0,0-1.2.53,1.87,1.87,0,0,0-.49,1.33,1.94,1.94,0,0,0,.49,1.33,1.64,1.64,0,0,0,1.2.5,1.68,1.68,0,0,0,1.2-.5A2,2,0,0,0,357.24,228.53Z" style="fill:#263238"></path><path d="M364,226a.73.73,0,0,1-.72.71H363v3.6a.71.71,0,0,1,.71.72.7.7,0,0,1-.71.71,1.44,1.44,0,0,1-1.44-1.43v-3.6h-.37a.71.71,0,0,1-.71-.71.7.7,0,0,1,.71-.71h.37v-1.88a.72.72,0,0,1,.73-.71.7.7,0,0,1,.71.71v1.88h.32A.71.71,0,0,1,364,226Z" style="fill:#263238"></path><path d="M365.33,228.51a3.2,3.2,0,0,1,3.15-3.22,3.08,3.08,0,0,1,3.11,3v.07a.41.41,0,0,1,0,.11.63.63,0,0,1-.67.52h-4.1a1.68,1.68,0,0,0,.43.85,2,2,0,0,0,1.24.58,2.16,2.16,0,0,0,1.35-.32.71.71,0,0,1,1,0,.59.59,0,0,1,0,.84,3.25,3.25,0,0,1-2.31.85A3.21,3.21,0,0,1,365.33,228.51Zm1.41-.63h3.65a2.1,2.1,0,0,0-1.91-1.37A1.8,1.8,0,0,0,366.74,227.88Z" style="fill:#263238"></path><path d="M384,223.92l-2.65,3.62V231a.69.69,0,0,1-.71.71.72.72,0,0,1-.71-.71v-3.49l-2.62-3.62a.7.7,0,0,1,1.13-.83l2.2,3,2.21-3a.71.71,0,0,1,1.15.83Z" style="fill:#263238"></path><path d="M384.5,230.8a3.21,3.21,0,0,1-.9-2.27,3.32,3.32,0,0,1,.9-2.26,3,3,0,0,1,2.22-1,2.83,2.83,0,0,1,2.15,1,3.23,3.23,0,0,1,.91,2.26,3.14,3.14,0,0,1-.91,2.27,2.87,2.87,0,0,1-2.15,1A3,3,0,0,1,384.5,230.8Zm.51-2.27a2.06,2.06,0,0,0,.47,1.36,1.75,1.75,0,0,0,1.24.48,1.67,1.67,0,0,0,1.18-.48,2.06,2.06,0,0,0,0-2.71,1.82,1.82,0,0,0-1.18-.49,1.89,1.89,0,0,0-1.24.49A2.05,2.05,0,0,0,385,228.53Z" style="fill:#263238"></path><path d="M394.32,231.74a2.69,2.69,0,0,1-2.68-2.68V226a.69.69,0,0,1,.68-.68.68.68,0,0,1,.68.68v3.09a1.31,1.31,0,0,0,1.32,1.31,1.34,1.34,0,0,0,1.36-1.31V226a.67.67,0,0,1,.67-.68.72.72,0,0,1,.7.68v3.09A2.72,2.72,0,0,1,394.32,231.74Z" style="fill:#263238"></path><path d="M403.66,226a.69.69,0,0,1-.69.68,1.23,1.23,0,0,0-.77.25,1.87,1.87,0,0,0-.6.62,3.69,3.69,0,0,0-.52,1.08v2.46a.71.71,0,0,1-.71.68.69.69,0,0,1-.69-.68V226a.68.68,0,0,1,.69-.67.7.7,0,0,1,.71.67v.09a1.66,1.66,0,0,1,.27-.26,2.86,2.86,0,0,1,1.62-.5A.67.67,0,0,1,403.66,226Z" style="fill:#263238"></path><path d="M414,229.61h-3.13l-.64,1.68a.71.71,0,0,1-.67.45.64.64,0,0,1-.24,0,.73.73,0,0,1-.43-.93l2.85-7.6a.71.71,0,0,1,.69-.45.68.68,0,0,1,.68.45l2.86,7.6a.74.74,0,0,1-.43.93.62.62,0,0,1-.25,0,.69.69,0,0,1-.65-.45Zm-.53-1.42-1-2.78-1,2.78Z" style="fill:#263238"></path><path d="M416.79,228.53a3.28,3.28,0,0,1,3.28-3.24,3.37,3.37,0,0,1,2.05.71.7.7,0,0,1,.14.95.68.68,0,0,1-1,.13,2.11,2.11,0,0,0-1.23-.41,1.85,1.85,0,1,0,0,3.7,2.16,2.16,0,0,0,1.23-.41.69.69,0,0,1,1,.14.71.71,0,0,1-.14,1,3.55,3.55,0,0,1-2.05.68A3.27,3.27,0,0,1,416.79,228.53Z" style="fill:#263238"></path><path d="M424,228.53a3.28,3.28,0,0,1,3.28-3.24,3.37,3.37,0,0,1,2.05.71.68.68,0,1,1-.83,1.08,2.05,2.05,0,0,0-1.22-.41,1.85,1.85,0,1,0,0,3.7,2.1,2.1,0,0,0,1.22-.41.7.7,0,0,1,1,.14.71.71,0,0,1-.14,1,3.55,3.55,0,0,1-2.05.68A3.27,3.27,0,0,1,424,228.53Z" style="fill:#263238"></path><path d="M432.19,230.8a3.25,3.25,0,0,1-.89-2.27,3.35,3.35,0,0,1,.89-2.26,3,3,0,0,1,2.23-1,2.83,2.83,0,0,1,2.15,1,3.23,3.23,0,0,1,.9,2.26,3.13,3.13,0,0,1-.9,2.27,2.87,2.87,0,0,1-2.15,1A3.06,3.06,0,0,1,432.19,230.8Zm.52-2.27a2.06,2.06,0,0,0,.47,1.36,1.73,1.73,0,0,0,1.24.48,1.67,1.67,0,0,0,1.18-.48,2.06,2.06,0,0,0,0-2.71,1.82,1.82,0,0,0-1.18-.49,1.87,1.87,0,0,0-1.24.49A2.05,2.05,0,0,0,432.71,228.53Z" style="fill:#263238"></path><path d="M442,231.74a2.69,2.69,0,0,1-2.68-2.68V226a.69.69,0,0,1,.68-.68.68.68,0,0,1,.68.68v3.09a1.31,1.31,0,0,0,1.32,1.31,1.34,1.34,0,0,0,1.36-1.31V226a.67.67,0,0,1,.67-.68.72.72,0,0,1,.7.68v3.09A2.72,2.72,0,0,1,442,231.74Z" style="fill:#263238"></path><path d="M452.45,228v3.09a.67.67,0,0,1-.67.68.69.69,0,0,1-.68-.68V228a1.33,1.33,0,0,0-1.34-1.3,1.29,1.29,0,0,0-1.3,1.3v3.09a.37.37,0,0,1,0,.13.71.71,0,0,1-.69.55.68.68,0,0,1-.68-.68V226a.68.68,0,0,1,.68-.68.7.7,0,0,1,.64.4,2.51,2.51,0,0,1,1.37-.4A2.7,2.7,0,0,1,452.45,228Z" style="fill:#263238"></path><path d="M457.89,226a.73.73,0,0,1-.72.71h-.33v3.6a.7.7,0,0,1,.71.72.69.69,0,0,1-.71.71,1.44,1.44,0,0,1-1.43-1.43v-3.6H455a.71.71,0,0,1-.71-.71.7.7,0,0,1,.71-.71h.37v-1.88a.71.71,0,0,1,.72-.71.69.69,0,0,1,.71.71v1.88h.33A.72.72,0,0,1,457.89,226Z" style="fill:#263238"></path><rect x="251.85" y="258.74" width="33.34" height="43.72" style="fill:#ebebeb"></rect><rect x="292.01" y="258.74" width="33.34" height="43.72" style="fill:#ebebeb"></rect><rect x="332.17" y="258.74" width="33.34" height="43.72" style="fill:#ebebeb"></rect><rect x="384.49" y="258.74" width="33.34" height="43.72" style="fill:#ebebeb"></rect><rect x="424.65" y="258.74" width="33.34" height="43.72" style="fill:#ebebeb"></rect><rect x="464.8" y="258.74" width="33.34" height="43.72" style="fill:#ebebeb"></rect><path d="M272.82,278.35a8,8,0,0,1,2.38,5.74,8.12,8.12,0,0,1-2.38,5.71,8,8,0,0,1-5.72,2.39H267a7.91,7.91,0,0,1-5.68-2.39,1.79,1.79,0,0,1,0-2.61,1.85,1.85,0,0,1,2.61,0,4.36,4.36,0,0,0,6.23,0,4.43,4.43,0,0,0,1.31-3.1,4.42,4.42,0,0,0-4.41-4.41A4.34,4.34,0,0,0,264,281a1.85,1.85,0,0,1-2.61,0c-.13-.13-.23-.3-.36-.43s0-.09,0-.09a.22.22,0,0,0-.07-.17c0-.1,0-.16,0-.23s0,0,0-.06a1.32,1.32,0,0,1,0-.56l1-8.45a2,2,0,0,1,.81-1.3c.07,0,.1,0,.13-.07s.07,0,.1-.07a1.8,1.8,0,0,1,.85-.19h9.63a1.84,1.84,0,0,1,1.86,1.86,1.86,1.86,0,0,1-1.86,1.83h-8l-.39,3.23a8.24,8.24,0,0,1,2.18-.3A8,8,0,0,1,272.82,278.35Z" style="fill:#c7c7c7"></path><path d="M313.22,278.31A8,8,0,0,1,315.6,284a8.1,8.1,0,0,1-13.84,5.74,1.85,1.85,0,0,1,2.61-2.61,4.34,4.34,0,0,0,3.1,1.27,4.5,4.5,0,0,0,3.14-1.27,4.37,4.37,0,0,0,1.3-3.13,4.26,4.26,0,0,0-1.3-3.11,4.38,4.38,0,0,0-3.11-1.3,1.6,1.6,0,0,1-1.33-.59s0,0,0,0a1.85,1.85,0,0,1-.06-2.61l3.33-3.4h-5.29a1.84,1.84,0,0,1,0-3.68h9.63a1.83,1.83,0,0,1,1.86,1.82,2,2,0,0,1-.23.89,2.48,2.48,0,0,1-.33.45l-4.11,4.24A7.75,7.75,0,0,1,313.22,278.31Z" style="fill:#c7c7c7"></path><path d="M405.7,278.31a8,8,0,0,1,2.38,5.72,8.1,8.1,0,0,1-13.84,5.74,1.85,1.85,0,0,1,2.61-2.61,4.34,4.34,0,0,0,3.1,1.27,4.47,4.47,0,0,0,3.14-1.27,4.37,4.37,0,0,0,1.3-3.13,4.26,4.26,0,0,0-1.3-3.11,4.37,4.37,0,0,0-3.1-1.3,1.62,1.62,0,0,1-1.34-.59s0,0,0,0a1.86,1.86,0,0,1-.07-2.61l3.33-3.4h-5.29a1.84,1.84,0,0,1,0-3.68h9.63a1.82,1.82,0,0,1,1.86,1.82,2,2,0,0,1-.23.89,2.44,2.44,0,0,1-.32.45l-4.12,4.24A7.62,7.62,0,0,1,405.7,278.31Z" style="fill:#c7c7c7"></path><path d="M356,284.42a7.8,7.8,0,1,1-12.11-6.5,5.29,5.29,0,0,1-1.07-3.23,5.39,5.39,0,0,1,10.77,0,5.3,5.3,0,0,1-1.08,3.23A7.85,7.85,0,0,1,356,284.42Zm-3.56,0a4.25,4.25,0,0,0-4.21-4.25,4.23,4.23,0,1,0,0,8.46A4.22,4.22,0,0,0,352.39,284.42Zm-6.07-9.73a1.83,1.83,0,1,0,3.66,0,1.83,1.83,0,0,0-3.66,0Z" style="fill:#c7c7c7"></path><path d="M346.39,240a.18.18,0,0,1,.17-.18h2.65a.18.18,0,0,1,0,.36h-2.46v2h2.15a.19.19,0,0,1,.18.19.18.18,0,0,1-.18.17h-2.15v2h2.46a.18.18,0,0,1,0,.36h-2.66a.18.18,0,0,1-.16-.18Z" style="fill:#c7c7c7"></path><path d="M353.23,242.85a1.11,1.11,0,0,0-1.11-1.11,1.14,1.14,0,0,0-1.12,1.11v2a.11.11,0,0,1,0,.08.15.15,0,0,1-.13.07h0a.23.23,0,0,1-.12-.1v0a0,0,0,0,0,0,0v-3.28a.17.17,0,0,1,.18-.18.17.17,0,0,1,.16.18v.34a1.49,1.49,0,0,1,1.12-.52,1.46,1.46,0,0,1,1.46,1.46v2a.17.17,0,0,1-.18.18.17.17,0,0,1-.17-.18Z" style="fill:#c7c7c7"></path><path d="M356.41,241.56a.18.18,0,0,1-.18.17h-.46v2.62a.29.29,0,0,0,.27.27.18.18,0,1,1,0,.36.62.62,0,0,1-.63-.63v-2.62H355c-.18,0-.18-.08-.18-.17s0-.18.18-.18h.45v-1.33a.18.18,0,0,1,.17-.18.2.2,0,0,1,.19.18v1.33h.46A.19.19,0,0,1,356.41,241.56Z" style="fill:#c7c7c7"></path><path d="M357.54,243.19a1.74,1.74,0,1,1,3.48-.13h0v0a.17.17,0,0,1-.18.16h-2.95a1.42,1.42,0,0,0,1.4,1.38,1.36,1.36,0,0,0,1.16-.66.18.18,0,0,1,.23-.06.19.19,0,0,1,.06.25,1.7,1.7,0,0,1-1.45.82A1.77,1.77,0,0,1,357.54,243.19Zm.37-.29h2.73a1.4,1.4,0,0,0-1.35-1.17A1.42,1.42,0,0,0,357.91,242.9Z" style="fill:#c7c7c7"></path><path d="M362.11,241.57a.17.17,0,0,1,.18-.18.17.17,0,0,1,.17.18v.79l.05-.09a1.76,1.76,0,0,1,1.44-.88.17.17,0,0,1,.18.18.18.18,0,0,1-.18.17,1.3,1.3,0,0,0-1,.59,3.14,3.14,0,0,0-.43.84.08.08,0,0,0,0,.06v1.57a.17.17,0,0,1-.17.18.17.17,0,0,1-.18-.18Z" style="fill:#c7c7c7"></path><path d="M368.68,245a.16.16,0,0,1-.05-.08l-1.35-3.22a.16.16,0,0,1,.08-.22.17.17,0,0,1,.23.09l1.2,2.83,1.19-2.83a.17.17,0,0,1,.23-.09.16.16,0,0,1,.09.22L369,244.84a.41.41,0,0,1,0,.09.18.18,0,0,1-.12,0h-.11Z" style="fill:#c7c7c7"></path><path d="M374.63,241.56v3.24a.18.18,0,0,1-.17.18.18.18,0,0,1-.18-.18v-.53a1.69,1.69,0,0,1-1.35.71,1.8,1.8,0,0,1,0-3.6,1.67,1.67,0,0,1,1.35.71v-.53a.18.18,0,0,1,.18-.18A.18.18,0,0,1,374.63,241.56Zm-.35,1.62a1.35,1.35,0,1,0-1.35,1.45A1.4,1.4,0,0,0,374.28,243.18Z" style="fill:#c7c7c7"></path><path d="M376.31,240a.18.18,0,0,1,.36,0v4.78a.18.18,0,1,1-.36,0Z" style="fill:#c7c7c7"></path><path d="M378.1,240.38a.18.18,0,0,1,.17-.17.18.18,0,0,1,.19.17v.17a.18.18,0,0,1-.19.19.18.18,0,0,1-.17-.19Zm0,1.18a.18.18,0,0,1,.17-.18.18.18,0,0,1,.19.18v3.24a.18.18,0,0,1-.19.18.18.18,0,0,1-.17-.18Z" style="fill:#c7c7c7"></path><path d="M383,244.28a1.71,1.71,0,0,1-1.38.7,1.8,1.8,0,0,1,0-3.6,1.72,1.72,0,0,1,1.38.71V240a.18.18,0,0,1,.36,0v4.78a.18.18,0,1,1-.36,0Zm0-1v-.12a1.43,1.43,0,1,0,0,.12Z" style="fill:#c7c7c7"></path><path d="M386.94,243.17a1.81,1.81,0,0,1,1.85-1.79,1.84,1.84,0,0,1,1.14.4.16.16,0,0,1,0,.24.17.17,0,0,1-.24,0,1.51,1.51,0,0,0-.92-.32,1.45,1.45,0,1,0,0,2.9,1.51,1.51,0,0,0,.92-.32.17.17,0,0,1,.24,0,.18.18,0,0,1,0,.26,1.9,1.9,0,0,1-1.13.38A1.81,1.81,0,0,1,386.94,243.17Z" style="fill:#c7c7c7"></path><path d="M392.81,241.38a1.8,1.8,0,1,1-1.71,1.8A1.76,1.76,0,0,1,392.81,241.38Zm0,3.25a1.45,1.45,0,1,0-1.35-1.45A1.41,1.41,0,0,0,392.81,244.63Z" style="fill:#c7c7c7"></path><path d="M398.73,244.28a1.69,1.69,0,0,1-1.38.7,1.8,1.8,0,0,1,0-3.6,1.7,1.7,0,0,1,1.38.71V240a.19.19,0,0,1,.19-.18.18.18,0,0,1,.17.18v4.78a.18.18,0,0,1-.17.18.19.19,0,0,1-.19-.18Zm0-1v-.12a1.4,1.4,0,0,0-1.38-1.39,1.44,1.44,0,0,0,0,2.88A1.39,1.39,0,0,0,398.73,243.25Z" style="fill:#c7c7c7"></path><path d="M400.33,243.19a1.74,1.74,0,1,1,3.48-.13h0v0a.17.17,0,0,1-.17.16h-2.95a1.41,1.41,0,0,0,1.39,1.38,1.34,1.34,0,0,0,1.16-.66.18.18,0,0,1,.23-.06.19.19,0,0,1,.06.25,1.7,1.7,0,0,1-1.45.82A1.77,1.77,0,0,1,400.33,243.19Zm.38-.29h2.72a1.38,1.38,0,0,0-2.72,0Z" style="fill:#c7c7c7"></path><rect x="351.29" y="316.76" width="47.41" height="14.85" style="fill:#1E8199"></rect><path d="M361.4,325.34a.37.37,0,0,1,.53,0,2.45,2.45,0,0,0,1.41.56,1.58,1.58,0,0,0,.91-.27.67.67,0,0,0,.32-.53.37.37,0,0,0-.07-.23.58.58,0,0,0-.22-.22,2.87,2.87,0,0,0-1-.35h0a3.34,3.34,0,0,1-.94-.29,1.54,1.54,0,0,1-.69-.57,1.11,1.11,0,0,1-.17-.6,1.35,1.35,0,0,1,.59-1.07,2.17,2.17,0,0,1,1.27-.39,2.79,2.79,0,0,1,1.6.59.38.38,0,0,1-.42.63,2.1,2.1,0,0,0-1.18-.47,1.38,1.38,0,0,0-.82.25.57.57,0,0,0-.28.46.43.43,0,0,0,0,.21,1.25,1.25,0,0,0,.2.19,2.49,2.49,0,0,0,.92.32h0a4,4,0,0,1,1,.31,1.65,1.65,0,0,1,.74.61,1.16,1.16,0,0,1,.18.62,1.43,1.43,0,0,1-.64,1.14,2.3,2.3,0,0,1-1.35.42,3.17,3.17,0,0,1-1.88-.74A.38.38,0,0,1,361.4,325.34Z" style="fill:#fff"></path><path d="M368.58,326.61a2.11,2.11,0,0,1-2.12-2.12v-2.61a.39.39,0,0,1,.4-.4.41.41,0,0,1,.42.4v2.61a1.31,1.31,0,1,0,2.61,0v-2.61a.4.4,0,0,1,.41-.4.39.39,0,0,1,.4.4v2.61A2.11,2.11,0,0,1,368.58,326.61Z" style="fill:#fff"></path><path d="M372.42,326.21v-4.33a.4.4,0,0,1,.41-.4h1a1.4,1.4,0,0,1,1.4,1.39,1.44,1.44,0,0,1-.28.84,1.57,1.57,0,0,1-.83,2.9h-1.33A.41.41,0,0,1,372.42,326.21Zm.82-2.74h.63a.6.6,0,0,0,.58-.6.58.58,0,0,0-.58-.58h-.63Zm0,2.33h.92a.76.76,0,0,0,0-1.52h-.92Z" style="fill:#fff"></path><path d="M381.2,321.88v4.33a.41.41,0,0,1-.41.4.39.39,0,0,1-.4-.4v-3.09l-1.06,1.47a.4.4,0,0,1-.33.17h0a.41.41,0,0,1-.34-.17l-1-1.47v3.09a.41.41,0,0,1-.82,0v-4.33a.41.41,0,0,1,.41-.4h0a.39.39,0,0,1,.32.17l1.46,2,1.46-2a.4.4,0,0,1,.33-.17h0A.41.41,0,0,1,381.2,321.88Z" style="fill:#fff"></path><path d="M383,321.88a.39.39,0,0,1,.4-.4.4.4,0,0,1,.41.4v4.33a.4.4,0,0,1-.41.4.39.39,0,0,1-.4-.4Z" style="fill:#fff"></path><path d="M388.35,322.29h-1.16v3.92a.41.41,0,0,1-.81,0v-3.92h-1.16a.4.4,0,0,1-.4-.41.39.39,0,0,1,.4-.4h3.13a.4.4,0,0,1,.41.4A.42.42,0,0,1,388.35,322.29Z" style="fill:#fff"></path><circle cx="375" cy="194.36" r="20.45" transform="translate(-44.12 141.99) rotate(-20.27)" style="fill:#1E8199;opacity:0.30000000000000004"></circle><path d="M381.18,186.9v6.66H379.3V186.9a4.31,4.31,0,1,0-8.6,0v6.66h-1.88V186.9a6.19,6.19,0,1,1,12.36,0Z" style="fill:#fff"></path><polygon points="368.82 188.63 370.7 188.71 370.7 193.56 368.82 193.56 368.82 188.63" style="fill:#ebebeb"></polygon><polygon points="381.18 189.13 381.18 193.56 379.3 193.56 379.3 189.06 381.18 189.13" style="fill:#ebebeb"></polygon><rect x="366.4" y="191.1" width="17.19" height="14.27" style="fill:#1E8199"></rect><path d="M375.73,198.14l.72,3.41h-3.06l.72-3.41a1.53,1.53,0,1,1,1.62,0Z" style="fill:#263238"></path></g><g id="freepik--Plant--inject-36"><path d="M106.64,330.06s-9.14-14-29.58-11.29c-19.44,2.59-31.52,36.63-12.7,42.63s18.5-26.61,26-31.42C95.9,326.45,103.21,328,106.64,330.06Z" style="fill:#1E8199"></path><path d="M59.8,336.35a40.4,40.4,0,0,1,4.42-2.77,18.51,18.51,0,0,1,4.6-1.78,26.81,26.81,0,0,1,2.93-3.1,25.92,25.92,0,0,1,6.5-4.25c-.2,0-.39-.07-.59-.09a28.22,28.22,0,0,0-3.18-.27,17.67,17.67,0,0,0-6.33,1,.09.09,0,0,1-.06-.18,28.53,28.53,0,0,1,6.34-1.28,17.45,17.45,0,0,1,3.15,0c.56.06,1.12.15,1.67.26l.32.06a26.69,26.69,0,0,1,6-1.58l-.54-.2a27.29,27.29,0,0,0-2.92-.77,23.25,23.25,0,0,0-6-.48.1.1,0,0,1,0-.19,38.48,38.48,0,0,1,6.07.33,25.34,25.34,0,0,1,5,1.13,28.34,28.34,0,0,1,3.69-.07c7,.37,14.37,3.7,18.12,9.84s3.87,13.88,4,20.88a155.5,155.5,0,0,1-2,29.16c-.1.57-.9.39-.86-.16.52-8.25,1-16.5,1-24.77,0-3.83-.05-7.68-.33-11.5a33.63,33.63,0,0,0-1.87-9.62,17.16,17.16,0,0,0-6.07-7.9,23,23,0,0,0-9.28-3.85,26,26,0,0,0-9.06,0,5.94,5.94,0,0,1-.12,1.78,10.13,10.13,0,0,1-.64,2.14,11.55,11.55,0,0,1-1,1.86c-.44.66-1,1.22-1.44,1.84-.07.1-.23,0-.14-.12a9.13,9.13,0,0,0,1.92-3.8,15.44,15.44,0,0,0,.43-2c.08-.51.08-1,.16-1.54a26.53,26.53,0,0,0-9.18,3.78c-.52.34-1,.71-1.53,1.09a9.92,9.92,0,0,1,1.5,2.25,20.6,20.6,0,0,1,1.48,3.33A27.09,27.09,0,0,1,77,341.9c0,.12-.19.14-.19,0a20.29,20.29,0,0,0-1.65-6.81,26.83,26.83,0,0,0-1.5-3.1c-.29-.52-.59-1-.92-1.52-.17-.27-.36-.54-.52-.83a27.54,27.54,0,0,0-6.43,7.46l0,0a13.81,13.81,0,0,1,2,3.59,31,31,0,0,1,1.49,4.18A68.26,68.26,0,0,1,71,353.3c0,.12-.18.14-.19,0A34.55,34.55,0,0,0,68.73,345c-.48-1.31-1-2.6-1.54-3.89a32.78,32.78,0,0,1-1.55-3.67,25.72,25.72,0,0,0-3.16,9.05.1.1,0,0,1-.19,0,32.39,32.39,0,0,1,5.84-13.8c-1.27.4-2.55.79-3.79,1.31a20.78,20.78,0,0,0-4.44,2.53C59.81,336.58,59.69,336.42,59.8,336.35Z" style="fill:#263238"></path><path d="M74.4,338.48c.41,2,1,4,1.34,6.07a23,23,0,0,1,.33,6c0,.05-.1.05-.1,0a57.84,57.84,0,0,0-1.75-12A.09.09,0,1,1,74.4,338.48Z" style="fill:#263238"></path><path d="M62.19,332.38A10.83,10.83,0,0,1,65,330.74a19.11,19.11,0,0,1,3.17-.8c.12,0,.14.18,0,.19a12.26,12.26,0,0,0-3.07.94,21.93,21.93,0,0,0-2.88,1.41A.06.06,0,0,1,62.19,332.38Z" style="fill:#263238"></path><path d="M96.75,313.78s-1.93-23.51-19.41-31.13c-14.6-6.37-23,10-12.63,20.08C73.06,310.85,86.44,307.18,96.75,313.78Z" style="fill:#1E8199"></path><path d="M67.94,287.2a74.64,74.64,0,0,1,7.78,3.68,59,59,0,0,1,6,4c-.29-.6-.54-1.22-.83-1.8-.46-.91-1-1.8-1.49-2.66a24.8,24.8,0,0,0-3.85-4.87c-.09-.09,0-.22.14-.13a37.92,37.92,0,0,1,4,4.72,26.91,26.91,0,0,1,1.66,2.66,10.31,10.31,0,0,1,1.18,2.7l.19.14a57.59,57.59,0,0,1,8.35,8.17c-.05-.23-.1-.46-.16-.67-.32-1.15-.68-2.29-1.06-3.42a29.21,29.21,0,0,0-3.15-6.86c-.07-.1.1-.19.16-.09a53.57,53.57,0,0,1,3.66,6.69A24.68,24.68,0,0,1,91.81,303a14.82,14.82,0,0,1,.57,2.36c.76,1,1.51,1.94,2.22,2.94,7.5,10.68,11.27,23.61,12.17,36.54a111.82,111.82,0,0,1,.2,11.58,71.92,71.92,0,0,1-1,11.63c0,.24-.43.17-.42-.07.09-3.4.44-6.78.5-10.18s0-6.82-.32-10.21a94.69,94.69,0,0,0-3.82-20A71.4,71.4,0,0,0,93,308.72c-.73-.15-1.46-.35-2.19-.53l-2.61-.69a26.42,26.42,0,0,1-4.88-1.79c-.11-.06,0-.23.1-.16a15.8,15.8,0,0,0,5,1.7c1.37.27,2.79.45,4.16.77a66.1,66.1,0,0,0-4.07-5.35,30.23,30.23,0,0,1-9.94-.74,40.54,40.54,0,0,1-5.09-1.58c-1.76-.68-3.41-1.55-5.14-2.27a.09.09,0,1,1,.08-.17,29.24,29.24,0,0,0,10.08,3.3,63.47,63.47,0,0,0,9.43.78c-1.24-1.43-2.52-2.82-3.89-4.12-4.59-4.37-10-8.39-16.1-10.49C67.77,287.34,67.83,287.15,67.94,287.2Z" style="fill:#263238"></path><path d="M82.17,287.27a25.93,25.93,0,0,1,2.14,3.14,16.65,16.65,0,0,1,1.54,3.64,0,0,0,0,1-.07,0c-.58-1.15-1.07-2.35-1.67-3.5A17.5,17.5,0,0,0,82,287.41C82,287.31,82.09,287.18,82.17,287.27Z" style="fill:#263238"></path><path d="M65.91,295.1a17.69,17.69,0,0,0,3.59,1.5,34.4,34.4,0,0,0,3.65,1s0,.11,0,.1a17.49,17.49,0,0,1-3.78-.83,31.13,31.13,0,0,1-3.54-1.59C65.7,295.21,65.8,295,65.91,295.1Z" style="fill:#263238"></path><path d="M109.37,310.31c.11,1,2.65-8.53,17.43-17,13.42-7.71,29.44-27.74,16.28-40.39C132.46,242.69,104.47,265,109.37,310.31Z" style="fill:#1E8199"></path><path d="M99.2,365.08a261.55,261.55,0,0,1,2.34-29.72,133.43,133.43,0,0,1,6.25-26.6c1.1-3.11,2.35-6.17,3.72-9.18a19.54,19.54,0,0,1,.06-3.51c.07-1.51.21-3,.34-4.51s.29-3,.47-4.5.5-3,.56-4.48a.1.1,0,1,1,.19,0,31.52,31.52,0,0,0-.53,4.76c-.11,1.45-.2,2.9-.24,4.35s0,2.91,0,4.36c0,.53,0,1.09.05,1.65q2.09-4.41,4.49-8.65c-1-6.13.3-12.53,1.55-18.53,0-.12.21-.06.19.06a51.29,51.29,0,0,0-1,9.5c-.06,2.52.06,5,.07,7.55l1.07-1.81q2.88-4.69,6.14-9.17a14.49,14.49,0,0,1,.15-4.36,32.67,32.67,0,0,1,1.07-4.78q.7-2.34,1.63-4.61c.64-1.56,1.5-3,2.11-4.59.06-.13.25,0,.18.08a22.47,22.47,0,0,0-1.85,4.64,40.41,40.41,0,0,0-1.21,4.6c-.31,1.55-.57,3.11-.79,4.68-.14,1-.23,2.12-.41,3.17a114.23,114.23,0,0,1,10.35-12c.08-.09.21,0,.13.14a136.09,136.09,0,0,0-15,20.44l-.48.82c.82-.51,1.75-.91,2.52-1.34,1.43-.79,2.87-1.59,4.31-2.36s2.8-1.52,4.19-2.3c.71-.39,1.42-.81,2.15-1.18a17,17,0,0,0,2.51-1.39c.11-.08.23.09.11.15-1.42.79-2.68,1.95-4.06,2.83s-2.78,1.73-4.22,2.53c-2.62,1.46-5.48,2.52-8.06,4-1.8,3.14-3.45,6.37-5,9.65,1.57-1,3.17-2,4.8-2.88,1-.58,2.1-1.16,3.16-1.72a15.55,15.55,0,0,0,3-1.8.1.1,0,0,1,.13.14,27.62,27.62,0,0,1-5.68,3.95c-1.89,1.11-3.81,2.18-5.79,3.15q-2.37,5.19-4.28,10.58c-6.22,17.62-8.5,36.32-9.6,54.89-.32,5.54-.49,11.07-.56,16.62s.22,11.07.21,16.6c0,.17-.27.2-.29,0-.66-4.91-.78-9.91-1-14.85S99.08,370.12,99.2,365.08Z" style="fill:#263238"></path><path d="M126.05,285.33a71.23,71.23,0,0,0,7.86-4.06,81.52,81.52,0,0,0,7.45-4.74s.09,0,0,.07a62.47,62.47,0,0,1-7.16,5,71,71,0,0,1-8.11,3.89C126,285.55,125.94,285.38,126.05,285.33Z" style="fill:#263238"></path><path d="M121.77,265.42c.22-.86.49-1.71.78-2.54a.08.08,0,0,1,0-.1c.19-.48.38-.95.58-1.42a1.71,1.71,0,0,1,.07-.18c0-.09.07-.18.11-.27s.06,0,0,0-.1.33-.15.49a1.38,1.38,0,0,1-.08.27,71.58,71.58,0,0,0-2.19,10c0,.1-.18.11-.17,0A33.68,33.68,0,0,1,121.77,265.42Z" style="fill:#263238"></path><path d="M106.71,335.78c5.15-16,16.8-25.51,31.76-23.31s20.05,21.91,10.05,28.49-22.82-6.65-28.92-8.87S106.71,335.78,106.71,335.78Z" style="fill:#1E8199"></path><path d="M105.35,376.63c-.22-1.81-.41-3.63-.6-5.44q-.59-5.43-1.16-10.86c-.7-6.62-.91-13.19,1-19.66a30,30,0,0,1,9.66-14.95,24.38,24.38,0,0,1,5.69-3.49,14.33,14.33,0,0,1,6.54-4.9,29.37,29.37,0,0,1,10.06-1.7c.12,0,.15.19,0,.19a24.7,24.7,0,0,0-9.46,2.05,20.22,20.22,0,0,0-3.63,2,18.88,18.88,0,0,0-2,1.73,21,21,0,0,1,8.79-1.16,19.22,19.22,0,0,1,3.19.57,9.4,9.4,0,0,1,2.36-.55,15.27,15.27,0,0,1,3.17,0,24,24,0,0,1,6.28,1.74c.12.05,0,.22-.08.18a22.16,22.16,0,0,0-6.07-1.35,18,18,0,0,0-3,0,15.62,15.62,0,0,0-1.65.24A19.24,19.24,0,0,1,145,329.23c.07.11-.09.22-.15.12a17.65,17.65,0,0,0-13.19-7.8c-.33,0-.66,0-1-.05.17.45.23,1,.35,1.43.2.71.43,1.42.68,2.12a38,38,0,0,0,1.79,4.21,34.89,34.89,0,0,0,2.35,4,20.21,20.21,0,0,0,3,3.75.1.1,0,1,1-.14.14c-1.05-1.23-2.23-2.33-3.22-3.63a29.64,29.64,0,0,1-2.54-3.9,27.12,27.12,0,0,1-1.92-4.3c-.28-.78-.52-1.58-.73-2.38a5.74,5.74,0,0,1-.3-1.47,19.59,19.59,0,0,0-5.11.62c1.14,3.48,2.36,7.1,4.8,9.92.08.09-.08.21-.15.11a41.11,41.11,0,0,1-3.2-4.75,19.5,19.5,0,0,1-2-5.14,23.63,23.63,0,0,0-8,4,28.11,28.11,0,0,0-9.47,13.88,46.56,46.56,0,0,0-1.65,18.19c.61,7.72,1.61,15.43,1.93,23.17,0,.5-.74.78-.92.23A26.47,26.47,0,0,1,105.35,376.63Z" style="fill:#263238"></path><path d="M115.07,324.37a8.35,8.35,0,0,1,1.43-1.77c.53-.57,1.07-1.14,1.65-1.66a13.65,13.65,0,0,1,3.86-2.51c.12-.05.19.13.08.17a11.12,11.12,0,0,0-3.8,2.59c-.55.54-1.06,1.1-1.56,1.68a10.51,10.51,0,0,1-1.47,1.65A.12.12,0,0,1,115.07,324.37Z" style="fill:#263238"></path><path d="M139.08,326.48a44.73,44.73,0,0,1,4,3.94,27.08,27.08,0,0,1,3.18,4.57c0,.05,0,.09-.08.05a59.57,59.57,0,0,0-7.19-8.41C138.87,326.55,139,326.4,139.08,326.48Z" style="fill:#263238"></path><path d="M123.2,327.23a10.73,10.73,0,0,0,1.21,2.59,17.44,17.44,0,0,0,1.73,2.2c0,.05,0,.11-.08.08a9.88,9.88,0,0,1-3-4.8C123,327.19,123.16,327.11,123.2,327.23Z" style="fill:#263238"></path><polygon points="83.58 368.66 84.63 381.16 87.86 419.29 122.45 419.29 125.68 381.16 126.73 368.66 83.58 368.66" style="fill:#455a64"></polygon><polygon points="83.58 368.66 84.63 381.16 125.68 381.16 126.73 368.66 83.58 368.66" style="fill:#263238"></polygon><rect x="80.18" y="363.64" width="49.94" height="11.99" transform="translate(210.31 739.27) rotate(180)" style="fill:#455a64"></rect></g></svg>
